<svg version="1.1" id="Layer_1" xmlns="http://www.w3.org/2000/svg" xmlns:xlink="http://www.w3.org/1999/xlink" x="0px" y="0px"
	 width="100%" viewBox="0 0 496 496" enable-background="new 0 0 496 496" xml:space="preserve">
<path fill="#000000" opacity="1.000000" stroke="none" 
	d="
M202.468658,497.000000 
	C206.846207,495.169128 211.895721,496.104919 216.839371,496.080841 
	C224.310089,496.044434 231.812881,495.437469 239.628510,496.825073 
	C227.645767,497.000000 215.291550,497.000000 202.468658,497.000000 
z"/>
<path fill="#000000" opacity="1.000000" stroke="none" 
	d="
M194.461380,345.758606 
	C171.669403,352.942596 152.441574,343.410950 143.657547,320.868713 
	C136.584824,302.718170 136.782974,284.172211 140.519485,265.372314 
	C144.556656,245.059601 152.569412,226.654526 165.974350,210.740845 
	C169.749954,206.258636 173.877243,202.092087 179.013184,199.203629 
	C182.035828,197.503662 182.996323,195.265457 183.032578,191.909744 
	C183.245087,172.252197 182.613480,152.587219 183.591568,132.933563 
	C183.758575,129.577347 184.185242,126.289703 184.899506,123.057922 
	C186.506119,115.788719 191.795685,113.592537 197.927444,117.781410 
	C205.055710,122.651047 210.314651,129.357941 215.006516,136.492142 
	C228.975327,157.732391 238.391266,180.918961 244.357132,205.566833 
	C244.538208,206.314926 244.825623,207.037277 245.450882,208.967850 
	C245.959259,184.913422 247.099411,162.164810 246.703094,139.383194 
	C246.587204,132.722366 246.662720,126.060089 247.633713,119.435318 
	C247.940262,117.343712 248.162460,115.086418 250.793381,115.248306 
	C253.147720,115.393181 253.302414,117.637573 253.238876,119.497627 
	C253.011505,126.154427 252.473907,132.807083 252.444733,139.463013 
	C252.339569,163.451950 252.414551,187.441879 251.271576,211.413345 
	C250.922760,218.729477 250.619476,226.048218 250.202316,233.360458 
	C250.079315,235.516647 249.913925,238.070465 246.932877,238.070267 
	C244.365921,238.070114 243.936539,235.861618 243.652893,233.803696 
	C240.986343,214.456268 236.898117,195.445679 229.649139,177.249115 
	C223.031967,160.638428 215.187836,144.657104 204.088791,130.488068 
	C201.248184,126.861732 198.272156,123.305298 194.147461,121.355339 
	C191.830322,122.665848 191.607910,124.620232 191.454422,126.360970 
	C189.533646,148.144516 190.508514,169.976791 190.486664,191.792404 
	C190.486221,192.224503 190.892303,192.657013 191.176086,193.223923 
	C194.143356,193.073853 197.126007,192.606293 200.054535,192.834244 
	C208.869919,193.520462 215.378784,197.956451 219.521118,205.748047 
	C220.414139,207.427765 221.818924,209.586029 219.239700,210.939728 
	C217.052628,212.087631 215.958893,210.106094 214.948730,208.585724 
	C210.383575,201.714890 204.767273,196.856659 195.785599,197.167679 
	C191.804474,197.305557 190.306503,198.510071 190.169968,202.676590 
	C189.766785,214.979309 189.040237,227.279388 187.300171,239.485794 
	C186.995773,241.620987 186.564667,243.758926 185.945389,245.821548 
	C185.488724,247.342575 185.101807,249.413742 182.887039,249.151825 
	C180.593506,248.880615 180.807709,246.764099 180.890823,245.198563 
	C181.270248,238.053787 181.978409,230.922897 182.217270,223.775269 
	C182.453491,216.706528 182.268906,209.623734 182.268906,201.859177 
	C173.987701,207.424408 168.099442,214.533157 163.176773,222.427948 
	C149.089584,245.020569 143.051346,269.778198 144.456146,296.261780 
	C144.997421,306.466370 147.851242,316.233368 152.815323,325.301453 
	C164.145203,345.998199 188.437164,350.004517 205.426163,333.761078 
	C216.052139,323.601379 223.360596,311.082855 229.838745,298.036377 
	C230.643524,296.415558 230.810364,294.950409 229.822586,293.332092 
	C228.783554,291.629822 229.212265,289.794006 229.664261,287.991180 
	C230.230469,285.732635 231.589874,284.483612 233.975494,284.792419 
	C236.692902,285.144135 236.229034,287.151062 236.003632,289.000153 
	C235.925873,289.638031 235.923187,290.285065 235.866913,291.263641 
	C248.687729,290.926178 241.001465,300.538483 242.904144,305.841827 
	C246.917664,305.891571 248.603928,303.017181 249.494751,300.162079 
	C252.371841,290.941071 257.318512,285.105591 268.003937,287.143890 
	C268.592712,287.256226 269.276794,286.876617 269.915070,286.719971 
	C274.138794,285.683411 275.514343,286.849762 274.971130,291.009125 
	C273.907532,299.153351 276.153870,301.336761 284.212097,299.856781 
	C286.330597,299.467651 288.391815,298.773956 290.488861,298.259003 
	C298.084076,296.393982 301.142914,291.782379 301.912994,283.765442 
	C303.472168,267.533264 306.643311,251.502106 313.526886,236.485443 
	C315.554016,232.063187 317.981995,227.920654 321.603577,224.567749 
	C324.159729,222.201248 327.157806,220.910110 330.607941,220.773224 
	C335.982208,220.559998 338.975433,223.403366 339.351074,228.776810 
	C339.896240,236.576080 336.842529,243.492050 333.899902,250.353592 
	C328.766510,262.323730 322.363007,273.641937 315.028320,284.397705 
	C313.313629,286.912140 313.284790,288.748840 315.152893,291.042877 
	C317.693756,294.163116 320.217041,297.277435 323.879333,299.128448 
	C330.189880,302.317993 336.606140,298.432159 336.795105,291.340240 
	C336.901581,287.343262 336.582520,283.300842 337.080627,279.357910 
	C337.588379,275.338562 336.335632,273.760986 332.325073,274.114410 
	C331.089355,274.223328 329.599945,274.400696 328.755585,272.804291 
	C329.341339,270.630310 331.278900,270.878479 332.754150,270.988373 
	C336.858978,271.293945 337.897827,269.270905 337.807434,265.574615 
	C337.738861,262.770020 338.342682,259.949097 338.645569,257.135284 
	C338.828217,255.438141 338.979431,253.501740 341.279297,253.668594 
	C343.660980,253.841370 343.265900,255.965256 343.340088,257.548035 
	C343.441437,259.710083 343.405182,261.879791 343.388611,264.045898 
	C343.337769,270.683746 343.331207,270.648987 349.791779,270.791260 
	C351.510101,270.829071 353.547729,270.152802 354.764435,272.545197 
	C353.211731,275.380463 350.413788,274.250275 348.240631,274.174103 
	C344.611694,274.046936 343.148346,275.244965 343.241516,279.020508 
	C343.522522,290.408234 341.558105,301.941772 346.078400,313.081573 
	C341.207306,312.718475 341.058441,312.496765 337.127716,300.074158 
	C331.896271,305.389069 326.053406,307.297974 318.725494,302.652954 
	C322.953918,311.780548 326.123352,320.317902 326.695953,329.606934 
	C326.914154,333.146149 326.570496,336.600372 325.372223,339.915100 
	C322.514587,347.820160 315.651917,349.131958 309.993652,342.709106 
	C304.981750,337.019958 303.015808,329.942688 301.701630,322.653137 
	C300.228851,314.483704 300.280151,306.210388 300.515472,297.555939 
	C289.987213,301.952576 280.480743,309.837708 268.524292,301.766357 
	C265.836548,303.300903 263.961029,306.565369 260.551636,307.720917 
	C256.939056,308.945343 253.681534,308.418976 250.702316,306.020050 
	C247.115280,308.336792 244.006348,313.153534 239.348358,310.259888 
	C233.996674,306.935364 237.792984,301.060364 236.883957,296.031494 
	C234.529984,296.732910 234.423889,298.952576 233.732712,300.552887 
	C227.919968,314.011200 220.170609,326.146362 209.499008,336.293396 
	C205.230759,340.351807 200.365921,343.522003 194.461380,345.758606 
M313.640259,257.061554 
	C311.935883,265.439026 309.650848,273.727905 309.287201,283.423553 
	C312.934265,279.652832 314.857117,276.005035 316.904602,272.494385 
	C323.778992,260.707428 330.877869,248.987946 333.679108,235.379486 
	C334.427643,231.743057 336.027496,226.685822 331.836884,225.087601 
	C327.459808,223.418259 325.088715,228.239517 323.036163,231.561188 
	C318.338135,239.163895 316.172577,247.751938 313.640259,257.061554 
M307.353882,301.080322 
	C307.334290,312.446533 308.490631,323.652893 312.276764,334.442017 
	C313.336609,337.462189 314.147125,340.825226 317.487518,342.317474 
	C320.199219,341.016968 320.566132,338.820282 320.724487,336.381073 
	C321.064850,331.138733 319.961029,326.098816 318.600098,321.132690 
	C316.116364,312.069489 313.376923,303.080872 308.429077,294.573334 
	C306.994324,296.657318 307.566315,298.524780 307.353882,301.080322 
M266.894897,292.551727 
	C265.846802,290.034210 263.917206,290.229675 262.036743,291.221069 
	C258.852753,292.899658 257.495209,295.875977 256.796753,299.263580 
	C256.509216,300.658081 256.401794,301.963654 257.732178,302.814728 
	C259.153595,303.724060 260.317688,302.790741 261.271759,301.902863 
	C263.868622,299.486145 265.536835,296.445404 266.894897,292.551727 
z"/>
<path fill="#000000" opacity="1.000000" stroke="none" 
	d="
M383.828857,352.924500 
	C388.914551,344.488434 393.616211,336.236938 398.785889,328.289948 
	C402.128693,323.151276 403.578369,317.805725 403.026642,311.773926 
	C402.896790,310.354248 402.568695,308.782990 403.720367,307.467987 
	C406.010162,307.180908 405.921783,310.346100 408.808899,310.374420 
	C412.902008,305.664093 416.523285,300.138580 418.360291,293.089874 
	C419.570343,292.244629 421.742981,293.409363 423.042267,290.978516 
	C429.308380,279.255188 436.507782,267.998413 442.214386,256.022583 
	C444.892303,250.402634 449.234711,246.065033 451.720184,240.485458 
	C452.294922,239.195312 453.365204,238.556366 454.941589,238.655960 
	C462.091736,239.107620 465.219055,244.604431 461.904358,250.856491 
	C459.940277,254.561127 456.889679,258.026886 459.917358,262.765839 
	C460.905457,264.312378 459.635071,266.327393 458.751526,267.931915 
	C455.622437,273.614532 452.662750,279.397186 448.619385,284.531799 
	C446.039154,287.808502 444.462250,291.785889 442.063446,295.107208 
	C433.600891,306.824371 426.623016,319.420959 419.370209,331.863373 
	C405.709290,355.299103 391.972198,378.692017 377.473511,401.621277 
	C369.235779,414.648987 358.781830,425.839935 347.472870,436.239990 
	C346.068390,437.531586 344.744659,439.218903 341.888031,439.049225 
	C343.241364,431.107941 345.650879,423.650635 348.159088,416.127991 
	C355.390503,394.439697 370.198486,377.102417 381.118530,357.544922 
	C381.929626,356.092316 382.800354,354.673004 383.828857,352.924500 
z"/>
<path fill="#000000" opacity="1.000000" stroke="none" 
	d="
M82.361511,356.376892 
	C81.685020,354.460327 80.809662,352.875275 80.797127,351.283417 
	C80.673531,335.585327 76.022629,319.980286 80.150642,304.173859 
	C82.071625,296.818268 80.839630,289.275482 80.275711,281.798553 
	C79.942085,277.375183 76.453400,274.472290 75.348244,270.441956 
	C74.991859,269.142273 73.456276,269.297424 72.288673,269.434875 
	C70.829208,269.606628 70.381454,270.699402 70.380974,271.943542 
	C70.378296,278.922516 69.476715,285.912537 70.595772,292.877991 
	C70.753250,293.858154 71.220879,294.838318 71.158569,295.793274 
	C71.037582,297.647675 71.888550,300.386230 69.165405,300.744934 
	C65.947647,301.168793 66.882545,298.156403 66.582794,296.427612 
	C64.570465,284.821625 65.768143,273.207916 66.769707,261.618073 
	C67.058624,258.274841 69.942261,256.658203 72.730255,255.845169 
	C75.521515,255.031219 78.549141,253.362579 81.162399,257.165710 
	C82.989273,259.824432 85.099937,262.532471 87.988892,264.369873 
	C89.310226,265.210297 89.834045,266.644562 90.195969,268.154968 
	C93.387383,281.473389 93.684471,295.141998 94.768372,308.681458 
	C95.787971,321.417572 95.701286,334.242920 96.069427,347.029907 
	C96.122063,348.858124 96.177315,350.718414 95.912048,352.516754 
	C95.405510,355.950867 94.055305,359.129120 90.563896,360.363983 
	C86.984016,361.630127 84.592613,359.338013 82.361511,356.376892 
M84.375450,266.238434 
	C81.850334,269.446564 84.744385,271.695068 85.263771,274.366852 
	C87.163155,271.484161 86.318184,268.961945 84.375450,266.238434 
z"/>
<path fill="#000000" opacity="1.000000" stroke="none" 
	d="
M204.778229,444.013489 
	C207.722183,444.334167 210.219894,444.512573 212.660767,444.984741 
	C217.724899,445.964478 218.800003,447.760101 216.441498,452.170319 
	C214.403839,455.980621 211.808685,459.532288 207.179626,460.675659 
	C194.292435,463.858917 181.332169,465.381439 168.183136,462.321838 
	C167.051880,462.058655 165.908768,461.772095 164.839890,461.330109 
	C162.394608,460.319000 159.567276,459.522827 159.395752,456.223145 
	C159.231873,453.070587 161.660675,451.498718 163.950348,450.182251 
	C171.169434,446.031433 179.051819,444.169800 187.336594,444.031036 
	C192.991714,443.936310 198.649597,444.007324 204.778229,444.013489 
z"/>
<path fill="#000000" opacity="1.000000" stroke="none" 
	d="
M23.667990,136.289825 
	C38.155666,149.855804 49.146194,165.307480 54.850540,184.270264 
	C35.602818,171.513916 22.620127,154.006821 14.313334,131.462509 
	C18.845991,131.921951 20.939377,134.349243 23.667990,136.289825 
z"/>
<path fill="#000000" opacity="1.000000" stroke="none" 
	d="
M277.706635,162.122101 
	C277.803131,160.690125 277.779602,159.671997 278.001312,158.710434 
	C278.341797,157.233871 278.837830,155.588562 280.712006,155.647217 
	C282.951630,155.717316 283.159149,157.593628 283.212280,159.289047 
	C283.300781,162.114914 283.485168,164.965744 283.222748,167.767990 
	C282.843658,171.815720 284.587067,173.156799 288.419708,172.846497 
	C290.277496,172.696091 292.385712,172.320343 294.073334,174.183853 
	C292.843811,177.045578 290.387085,176.360550 288.518860,176.171524 
	C284.423798,175.757172 282.573273,177.581772 282.556335,181.437881 
	C282.509857,192.021545 280.882233,202.732361 284.947021,213.015198 
	C285.161652,213.558151 284.974701,214.259857 284.974701,215.260468 
	C280.779053,215.019897 279.821045,211.919174 278.841431,209.049957 
	C276.262817,201.497543 276.654724,193.637390 276.644562,185.823898 
	C276.641113,183.170380 277.145325,180.304581 276.319092,177.915680 
	C275.208893,174.705719 271.503937,176.901199 269.251862,175.668289 
	C268.822266,175.433090 268.421692,175.144852 267.444580,174.084366 
	C276.159271,174.265869 278.669800,169.774338 277.706635,162.122101 
z"/>
<path fill="#000000" opacity="1.000000" stroke="none" 
	d="
M296.988159,186.505707 
	C298.013672,186.194016 298.644745,185.941025 299.297485,185.857712 
	C302.784393,185.412628 305.986267,186.001526 308.305359,188.896027 
	C309.591644,190.501434 308.821747,192.119263 307.690155,193.430252 
	C305.139191,196.385559 302.064789,198.105972 297.995392,196.930328 
	C297.229248,196.709015 296.531860,196.079514 295.668945,196.630630 
	C294.681915,202.693893 297.606750,205.579895 303.366058,204.194687 
	C307.796722,203.129089 311.702667,200.936096 315.578278,198.620819 
	C317.210785,197.645569 318.676880,196.055923 320.925415,196.323044 
	C321.749298,198.029755 320.428711,198.835907 319.519135,199.646271 
	C315.105621,203.578339 310.066254,206.457458 304.346710,207.987076 
	C297.015991,209.947510 291.643616,207.703766 289.349213,201.902634 
	C286.867584,195.628082 289.457184,190.180832 296.988159,186.505707 
z"/>
<path fill="#000000" opacity="1.000000" stroke="none" 
	d="
M38.272408,380.711243 
	C37.805447,379.098511 37.335636,377.840607 37.859360,376.548462 
	C38.944698,375.629883 39.898026,376.370087 40.553696,376.936279 
	C47.630348,383.047546 53.883831,389.836060 57.544907,398.617920 
	C58.122536,400.003479 59.608112,401.513092 57.667133,403.036041 
	C55.874245,404.442810 54.554592,403.681122 52.858829,402.501923 
	C45.230961,397.197784 41.752708,389.193054 38.272408,380.711243 
z"/>
<path fill="#000000" opacity="1.000000" stroke="none" 
	d="
M274.334473,196.121979 
	C274.339386,197.057602 274.367981,197.558441 274.327850,198.053726 
	C273.792786,204.660736 269.888245,208.730469 264.546875,208.260590 
	C260.378876,207.893936 256.726898,203.298691 256.908356,198.649033 
	C257.167786,192.000748 261.457794,187.552139 267.384735,187.688873 
	C272.677490,187.810989 273.895142,191.386139 274.334473,196.121979 
M263.178253,198.490982 
	C262.955475,199.283859 262.657928,200.064529 262.525940,200.872238 
	C262.278351,202.387634 262.210449,204.119598 263.845612,204.749557 
	C265.720947,205.472076 267.101105,204.069092 267.734863,202.544342 
	C269.253387,198.891006 269.564270,195.188248 267.496948,191.354187 
	C264.425354,192.927704 264.066193,195.457932 263.178253,198.490982 
z"/>
</svg>