<?xml version="1.0" standalone="no"?>
<!DOCTYPE svg PUBLIC "-//W3C//DTD SVG 20010904//EN"
 "http://www.w3.org/TR/2001/REC-SVG-20010904/DTD/svg10.dtd">
<svg version="1.0" xmlns="http://www.w3.org/2000/svg"
 width="700.000000pt" height="700.000000pt" viewBox="0 0 700.000000 700.000000"
 preserveAspectRatio="xMidYMid meet">
<metadata>
Created by potrace 1.14, written by Peter Selinger 2001-2017
</metadata>
<g transform="translate(0.000000,700.000000) scale(0.100000,-0.100000)"
fill="#000000" stroke="none">
<path d="M4860 6854 c-63 -69 -136 -155 -162 -192 -77 -110 -96 -129 -131
-136 -17 -3 -46 -15 -64 -25 -32 -20 -183 -195 -183 -213 0 -5 5 -18 11 -29 5
-11 7 -28 4 -38 -8 -28 -112 -79 -175 -86 -106 -13 -125 -22 -175 -81 -38 -45
-65 -64 -140 -99 -95 -46 -113 -63 -135 -129 -17 -52 -73 -113 -113 -122 -18
-4 -72 -8 -122 -8 -80 -1 -96 -4 -143 -31 -69 -38 -139 -115 -153 -168 -23
-93 -23 -92 -54 -95 -67 -6 -75 -11 -102 -67 -34 -72 -67 -96 -152 -105 -87
-9 -109 -22 -132 -76 l-20 -44 -97 -2 c-53 -1 -110 -2 -127 -3 -16 -1 -48 -3
-70 -5 -22 -1 -149 3 -282 10 -227 11 -335 7 -413 -16 -22 -6 -50 -62 -59
-120 -5 -27 -9 -42 -10 -34 -4 35 -30 -38 -31 -83 0 -45 1 -48 23 -42 19 5 20
4 5 -5 -16 -10 -18 -30 -19 -158 -1 -81 -4 -136 -8 -122 -4 14 -5 -59 -3 -162
4 -156 2 -194 -12 -228 -9 -22 -16 -68 -16 -103 0 -34 -12 -138 -27 -232 l-26
-170 -76 -84 c-42 -47 -96 -97 -121 -113 -29 -18 -53 -45 -67 -73 -25 -47 -72
-90 -114 -100 -39 -10 -272 -261 -303 -328 -62 -131 -278 -278 -372 -254 -11
3 -1 5 21 6 58 3 103 21 176 73 86 62 126 106 169 183 21 38 81 114 150 187
91 98 126 128 172 150 48 22 62 35 88 81 21 38 45 63 78 84 27 17 80 68 118
114 l70 84 27 165 c15 91 27 195 27 231 0 37 7 86 15 109 8 23 15 63 14 89 0
39 -7 24 -44 -109 -53 -184 -67 -219 -117 -287 -43 -58 -48 -91 -18 -118 29
-26 25 -47 -17 -94 -33 -35 -56 -48 -178 -92 -102 -37 -149 -59 -175 -84 -19
-18 -68 -54 -109 -80 -40 -25 -84 -58 -98 -73 -13 -14 -48 -38 -76 -52 -36
-17 -57 -35 -67 -57 -15 -33 -38 -46 -188 -114 -45 -20 -86 -47 -108 -71 -19
-22 -61 -54 -92 -73 -62 -36 -96 -69 -106 -101 -3 -11 -36 -45 -72 -74 -71
-58 -94 -92 -94 -142 0 -18 -9 -46 -20 -63 -19 -28 -20 -47 -20 -327 0 -164 3
-298 8 -298 11 0 60 47 80 77 11 18 19 57 23 117 l6 91 1 -80 c2 -97 -17 -145
-77 -197 l-41 -35 0 -142 0 -142 23 6 c29 9 60 29 110 72 31 26 29 23 -7 -12
-27 -25 -67 -55 -88 -66 l-38 -19 0 -106 c0 -100 1 -104 19 -94 11 5 23 10 28
10 4 -1 -4 -8 -19 -16 -25 -13 -28 -20 -28 -69 0 -59 7 -65 50 -40 14 8 30 14
35 14 6 0 -11 -11 -37 -25 l-48 -24 0 -347 0 -347 37 35 37 34 -37 -43 -37
-42 0 -149 c0 -147 0 -150 23 -154 l22 -4 -22 -2 c-22 -1 -23 -4 -23 -116 l0
-115 394 0 395 0 4 38 4 37 1 -37 2 -38 249 0 c229 0 250 1 254 18 4 16 5 16
6 0 1 -17 151 -18 2836 -18 l2835 0 0 1979 c0 1574 -3 1980 -12 1984 -10 4
-10 6 0 6 9 1 12 41 12 167 0 129 -3 164 -12 158 -10 -6 -10 -4 0 7 9 10 12
135 12 555 0 425 -3 543 -12 547 -10 4 -10 6 0 6 8 1 12 25 12 85 l0 85 -32 4
-33 4 32 1 33 2 0 549 0 550 -22 4 -23 4 23 2 c22 1 22 3 22 141 l0 140 -179
0 c-178 0 -180 0 -184 -22 l-4 -23 -2 23 c-1 21 -4 22 -116 22 -98 0 -116 -3
-125 -17 -11 -17 -11 -17 -6 0 5 16 -14 17 -304 17 l-310 0 0 -37 c-1 -21 -8
-51 -16 -68 -8 -16 -12 -21 -8 -10 3 11 8 41 11 68 l6 47 -117 0 -117 0 -32
-32 c-18 -18 -102 -90 -187 -159 -204 -167 -187 -150 -272 -264 -88 -118 -193
-214 -309 -285 -46 -29 -95 -61 -108 -73 -45 -42 -109 -142 -114 -177 l-4 -35
-1 35 c-2 28 8 49 42 95 58 80 97 114 186 165 92 54 242 197 317 303 31 44 85
103 122 133 36 30 125 103 198 162 72 59 134 113 137 120 4 9 -52 12 -262 12
l-267 0 -115 -126z m1410 -69 c-24 -25 -46 -45 -49 -45 -3 0 15 20 39 45 24
25 46 45 49 45 3 0 -15 -20 -39 -45z m-555 6 c-8 -17 -19 -33 -25 -36 -5 -3
-1 10 11 29 25 43 36 48 14 7z m-71 -106 c-9 -14 -18 -25 -21 -25 -5 0 5 18
20 38 17 22 18 13 1 -13z m-39 -65 c-9 -16 -18 -30 -21 -30 -2 0 2 14 11 30 9
17 18 30 21 30 2 0 -2 -13 -11 -30z m-25 -44 c0 -2 -19 -19 -42 -36 l-43 -32
40 36 c40 36 45 39 45 32z m-120 -89 c0 -2 -17 -19 -37 -38 l-38 -34 34 38
c33 34 41 42 41 34z m-66 -112 c5 -22 4 -26 -4 -15 -5 8 -10 24 -10 34 0 26 6
18 14 -19z m-4 -70 c-7 -8 -17 -15 -23 -15 -6 0 -2 7 9 15 25 19 30 19 14 0z
m-70 -19 c0 -2 -9 -6 -20 -9 -11 -3 -18 -1 -14 4 5 9 34 13 34 5z m-50 -19 c0
-2 -17 -19 -37 -38 l-38 -34 34 38 c33 34 41 42 41 34z m-80 -70 c0 -2 -10
-12 -22 -23 l-23 -19 19 23 c18 21 26 27 26 19z m-50 -42 c0 -2 -10 -9 -22
-15 -22 -11 -22 -10 -4 4 21 17 26 19 26 11z m-87 -42 c-7 -2 -19 -2 -25 0 -7
3 -2 5 12 5 14 0 19 -2 13 -5z m-44 -5 c-2 -2 -20 -16 -39 -33 l-35 -30 29 33
c17 17 34 32 40 32 5 0 7 -1 5 -2z m-95 -103 c-14 -19 -29 -35 -31 -35 -5 0 7
18 36 53 26 31 23 18 -5 -18z m-34 -49 c0 -2 -8 -10 -17 -17 -16 -13 -17 -12
-4 4 13 16 21 21 21 13z m-375 -82 c-21 -33 -72 -54 -130 -54 -39 0 -76 -15
-229 -94 -100 -51 -221 -119 -269 -150 -48 -31 -95 -56 -106 -56 -10 0 -38 9
-62 20 -24 11 -37 20 -29 19 8 0 26 -6 40 -14 41 -24 66 -17 152 39 46 30 167
97 270 150 153 79 195 96 231 96 86 0 135 34 138 97 l2 28 4 -28 c3 -16 -3
-39 -12 -53z m345 42 c0 -2 -8 -10 -17 -17 -16 -13 -17 -12 -4 4 13 16 21 21
21 13z m-30 -40 c0 -2 -8 -10 -17 -17 -16 -13 -17 -12 -4 4 13 16 21 21 21 13z
m-30 -39 c0 -1 -26 -27 -57 -57 l-58 -55 55 58 c50 53 60 62 60 54z m-120
-111 c0 -3 -15 -14 -32 -26 l-33 -22 30 26 c31 27 35 29 35 22z m-148 -115
c-9 -16 -18 -28 -21 -26 -4 5 27 55 34 55 2 0 -4 -13 -13 -29z m-902 -52 c-58
-11 -87 -33 -132 -101 -26 -39 -59 -70 -108 -103 -72 -48 -84 -67 -51 -85 28
-14 58 -12 86 6 21 14 26 14 53 0 23 -12 29 -21 25 -36 -5 -20 -40 -46 -50
-37 -2 3 4 8 15 11 30 10 34 42 6 55 -18 8 -30 7 -52 -6 -37 -21 -98 -11 -107
18 -8 25 7 43 61 75 41 24 70 53 143 144 37 46 80 70 126 69 23 -1 20 -3 -15
-10z m1440 7 c0 -2 -8 -10 -17 -17 -16 -13 -17 -12 -4 4 13 16 21 21 21 13z
m-580 -29 c0 -2 -12 -14 -27 -28 l-28 -24 24 28 c23 25 31 32 31 24z m-60 -51
c0 -2 -8 -10 -17 -17 -16 -13 -17 -12 -4 4 13 16 21 21 21 13z m-150 -100 c0
-2 -8 -10 -17 -17 -16 -13 -17 -12 -4 4 13 16 21 21 21 13z m-40 -30 c0 -2 -8
-10 -17 -17 -16 -13 -17 -12 -4 4 13 16 21 21 21 13z m-40 -30 c0 -2 -12 -11
-27 -20 l-28 -17 24 20 c23 21 31 25 31 17z m-82 -63 c-26 -28 -50 -70 -62
-110 -6 -18 -2 -22 21 -26 15 -2 6 -4 -22 -5 -27 0 -44 2 -37 5 7 3 24 28 38
56 24 47 70 107 83 107 2 0 -7 -12 -21 -27z m-693 -63 c12 -5 -1 -6 -35 -3
-52 5 -58 3 -102 -32 -27 -21 -48 -41 -48 -45 0 -4 -9 -10 -21 -13 -22 -6 36
49 90 85 27 19 82 22 116 8z m428 -7 c-7 -2 -21 -2 -30 0 -10 3 -4 5 12 5 17
0 24 -2 18 -5z m-110 -22 c-23 -11 -48 -29 -55 -40 -7 -12 -19 -21 -27 -21
-11 0 -9 5 5 21 22 24 82 58 104 58 8 0 -4 -8 -27 -18z m152 9 c3 -6 -1 -7 -9
-4 -18 7 -21 14 -7 14 6 0 13 -4 16 -10z m812 -25 c-13 -20 -30 -34 -42 -34
-17 0 -17 1 -3 7 9 4 26 19 38 35 30 38 33 34 7 -8z m-1562 -15 c14 -27 14
-30 0 -30 -9 0 -14 4 -11 9 8 12 -4 41 -16 41 -6 0 -8 -13 -6 -30 4 -29 4 -30
-36 -28 -37 1 -38 2 -8 5 25 3 32 9 32 27 0 45 23 48 45 6z m779 -15 c3 -8 1
-15 -4 -15 -6 0 -10 7 -10 15 0 8 2 15 4 15 2 0 6 -7 10 -15z m-481 -22 c-7
-2 -21 -2 -30 0 -10 3 -4 5 12 5 17 0 24 -2 18 -5z m1676 -39 c102 -30 173
-127 186 -254 4 -36 12 -68 19 -72 6 -4 7 -8 1 -8 -7 0 -11 -347 -12 -1022 -2
-1154 -10 -1378 -50 -1465 -50 -106 -127 -170 -238 -197 -69 -16 -403 -30
-423 -17 -11 6 -11 17 -3 48 8 31 38 67 142 169 153 151 209 224 239 314 27
79 52 268 55 413 2 59 5 111 9 114 3 4 -1 14 -10 24 -15 17 -15 21 0 54 15 30
16 44 6 87 -7 34 -10 273 -10 727 1 579 -2 685 -15 736 -19 75 -134 304 -158
317 -10 5 -33 10 -51 11 -18 1 -41 10 -51 20 -18 16 -11 17 146 17 121 0 180
-4 218 -16z m691 -908 c0 -3 -4 -8 -10 -11 -5 -3 -10 -1 -10 4 0 6 5 11 10 11
6 0 10 -2 10 -4z m-4146 -254 c-10 -2 -14 -19 -14 -53 0 -40 3 -49 18 -50 15
-1 15 -2 0 -6 -12 -3 -18 -20 -23 -61 -11 -95 -14 -83 -9 28 7 148 12 173 28
157 12 -10 12 -13 0 -15z m153 -8 c-3 -3 -12 -4 -19 -1 -8 3 -5 6 6 6 11 1 17
-2 13 -5z m-147 -194 c0 -5 -2 -10 -4 -10 -3 0 -8 5 -11 10 -3 6 -1 10 4 10 6
0 11 -4 11 -10z m-43 -112 c-2 -13 -4 -5 -4 17 -1 22 1 32 4 23 2 -10 2 -28 0
-40z m-50 -25 c-3 -10 -5 -4 -5 12 0 17 2 24 5 18 2 -7 2 -21 0 -30z m40 -75
c-2 -13 -4 -5 -4 17 -1 22 1 32 4 23 2 -10 2 -28 0 -40z m-50 -50 c-2 -18 -4
-6 -4 27 0 33 2 48 4 33 2 -15 2 -42 0 -60z m40 -55 c-2 -16 -4 -5 -4 22 0 28
2 40 4 28 2 -13 2 -35 0 -50z m-50 -15 c-3 -8 -6 -5 -6 6 -1 11 2 17 5 13 3
-3 4 -12 1 -19z m80 -65 c-2 -16 -4 -3 -4 27 0 30 2 43 4 28 2 -16 2 -40 0
-55z m-96 20 c-12 -20 -14 -14 -5 12 4 9 9 14 11 11 3 -2 0 -13 -6 -23z m54
-60 c-3 -24 -11 -41 -16 -38 -5 4 -5 13 1 25 5 10 11 38 11 62 1 26 4 33 6 19
3 -13 2 -44 -2 -68z m-85 -3 c-6 -11 -13 -20 -16 -20 -2 0 0 9 6 20 6 11 13
20 16 20 2 0 0 -9 -6 -20z m-20 -33 c0 -2 -10 -12 -22 -23 l-23 -19 19 23 c18
21 26 27 26 19z m73 -22 c-3 -9 -8 -14 -10 -11 -3 3 -2 9 2 15 9 16 15 13 8
-4z m-113 -28 c0 -2 -19 -21 -42 -42 l-43 -40 40 43 c36 39 45 47 45 39z m147
-44 c-3 -10 -5 -2 -5 17 0 19 2 27 5 18 2 -10 2 -26 0 -35z m-50 -35 c-3 -8
-6 -5 -6 6 -1 11 2 17 5 13 3 -3 4 -12 1 -19z m-192 -8 c-3 -5 -27 -24 -53
-41 -54 -37 -46 -25 13 20 45 33 49 35 40 21z m292 -67 c-3 -10 -5 -2 -5 17 0
19 2 27 5 18 2 -10 2 -26 0 -35z m-427 -27 c0 -2 -8 -10 -17 -17 -16 -13 -17
-12 -4 4 13 16 21 21 21 13z m281 -29 c-10 -9 -11 -8 -5 6 3 10 9 15 12 12 3
-3 0 -11 -7 -18z m-321 0 c0 -2 -19 -21 -42 -42 l-43 -40 40 43 c36 39 45 47
45 39z m367 -69 c-3 -8 -6 -5 -6 6 -1 11 2 17 5 13 3 -3 4 -12 1 -19z m-87 -2
c0 -2 -8 -10 -17 -17 -16 -13 -17 -12 -4 4 13 16 21 21 21 13z m177 -63 c-3
-10 -5 -2 -5 17 0 19 2 27 5 18 2 -10 2 -26 0 -35z m-564 2 c-3 -9 -8 -14 -10
-11 -3 3 -2 9 2 15 9 16 15 13 8 -4z m554 -47 c-3 -8 -6 -5 -6 6 -1 11 2 17 5
13 3 -3 4 -12 1 -19z m-577 -2 c0 -2 -8 -10 -17 -17 -16 -13 -17 -12 -4 4 13
16 21 21 21 13z m280 -19 c0 -1 -24 -25 -52 -52 l-53 -50 50 53 c46 48 55 57
55 49z m287 -29 c-3 -8 -6 -5 -6 6 -1 11 2 17 5 13 3 -3 4 -12 1 -19z m-637
-2 c0 -2 -8 -10 -17 -17 -16 -13 -17 -12 -4 4 13 16 21 21 21 13z m-41 -30
c-21 -20 -99 -75 -94 -66 7 12 85 70 93 70 3 0 3 -2 1 -4z m-500 -35 c-65 -9
-96 -33 -110 -83 -26 -95 -32 -110 -64 -148 -49 -59 -76 -105 -96 -168 -10
-32 -18 -49 -18 -40 -2 36 41 126 93 196 38 50 58 88 65 123 6 28 16 59 22 70
17 32 70 59 114 58 l40 -2 -46 -6z m4056 -62 c88 -26 128 -33 202 -33 50 -1
91 -1 90 -2 -76 -49 -446 -302 -562 -384 -88 -62 -182 -127 -210 -143 l-49
-29 -171 4 c-96 2 -178 8 -188 14 -15 9 -10 11 30 12 101 4 289 34 335 54 83
36 155 141 165 242 3 28 -2 100 -11 161 -8 60 -12 113 -8 117 17 17 93 27 177
24 64 -3 122 -14 200 -37z m-3665 18 c0 -2 -19 -21 -42 -42 l-43 -40 40 43
c36 39 45 47 45 39z m610 -10 c0 -1 -24 -25 -52 -52 l-53 -50 50 53 c46 48 55
57 55 49z m235 -55 c-3 -3 -11 0 -18 7 -9 10 -8 11 6 5 10 -3 15 -9 12 -12z
m-645 5 c0 -2 -17 -19 -37 -38 l-38 -34 34 38 c33 34 41 42 41 34z m-321 -54
c-18 -21 -37 -42 -41 -47 -5 -6 -8 -7 -8 -3 0 9 70 87 78 87 3 0 -10 -17 -29
-37z m581 -56 c0 -2 -10 -12 -22 -23 l-23 -19 19 23 c18 21 26 27 26 19z
m-633 -39 c-3 -7 -5 -2 -5 12 0 14 2 19 5 13 2 -7 2 -19 0 -25z m-16 -41 c-10
-9 -11 -8 -5 6 3 10 9 15 12 12 3 -3 0 -11 -7 -18z m-11 -20 c0 -2 -15 -13
-32 -26 l-33 -22 28 25 c26 24 37 31 37 23z m-89 -94 c-12 -20 -14 -14 -5 12
4 9 9 14 11 11 3 -2 0 -13 -6 -23z m4976 -25 c-3 -8 -6 -5 -6 6 -1 11 2 17 5
13 3 -3 4 -12 1 -19z m-4996 -25 c-12 -20 -14 -14 -5 12 4 9 9 14 11 11 3 -2
0 -13 -6 -23z m-20 -50 c-12 -20 -14 -14 -5 12 4 9 9 14 11 11 3 -2 0 -13 -6
-23z m1179 -5 c0 -6 -6 -5 -15 2 -8 7 -15 14 -15 16 0 2 7 1 15 -2 8 -4 15
-11 15 -16z m-53 -55 c-3 -10 -5 -4 -5 12 0 17 2 24 5 18 2 -7 2 -21 0 -30z
m-887 23 c0 -2 -8 -10 -17 -17 -16 -13 -17 -12 -4 4 13 16 21 21 21 13z m-290
-65 c-5 -11 -15 -23 -21 -27 -6 -3 -3 5 6 20 20 30 30 35 15 7z m1193 4 c4 -8
2 -17 -3 -20 -6 -4 -10 3 -10 14 0 25 6 27 13 6z m-965 -15 c-7 -10 -14 -17
-17 -15 -4 4 18 35 25 35 2 0 -1 -9 -8 -20z m1029 -22 c-3 -8 -6 -5 -6 6 -1
11 2 17 5 13 3 -3 4 -12 1 -19z m-1287 -11 c0 -2 -17 -19 -37 -38 l-38 -34 34
38 c33 34 41 42 41 34z m237 -44 c-3 -10 -5 -2 -5 17 0 19 2 27 5 18 2 -10 2
-26 0 -35z m-7 -27 c0 -2 -8 -10 -17 -17 -16 -13 -17 -12 -4 4 13 16 21 21 21
13z m-316 -31 c-9 -14 -18 -25 -21 -25 -5 0 5 18 20 38 17 22 18 13 1 -13z
m186 -59 c0 -2 -8 -10 -17 -17 -16 -13 -17 -12 -4 4 13 16 21 21 21 13z m-240
-25 c-5 -11 -15 -23 -21 -27 -6 -3 -3 5 6 20 20 30 30 35 15 7z m410 -14 c0
-2 -10 -12 -22 -23 l-23 -19 19 23 c18 21 26 27 26 19z m-240 -21 c0 -2 -8
-10 -17 -17 -16 -13 -17 -12 -4 4 13 16 21 21 21 13z m-200 -9 c0 -2 -10 -12
-22 -23 l-23 -19 19 23 c18 21 26 27 26 19z m140 -40 c0 -2 -17 -19 -37 -38
l-38 -34 34 38 c33 34 41 42 41 34z m2047 -63 c-3 -3 -12 -4 -19 -1 -8 3 -5 6
6 6 11 1 17 -2 13 -5z m91 -11 c-10 -2 -28 -2 -40 0 -13 2 -5 4 17 4 22 1 32
-1 23 -4z m562 -9 c0 -2 -7 -4 -15 -4 -8 0 -15 4 -15 10 0 5 7 7 15 4 8 -4 15
-8 15 -10z m1810 -8 c0 -2 -8 -10 -17 -17 -16 -13 -17 -12 -4 4 13 16 21 21
21 13z m-2353 -52 c-3 -3 -12 -4 -19 -1 -8 3 -5 6 6 6 11 1 17 -2 13 -5z m603
-34 c0 -5 -8 -10 -17 -10 -15 0 -16 2 -3 10 19 12 20 12 20 0z m-2890 -53 c0
-2 -10 -12 -22 -23 l-23 -19 19 23 c18 21 26 27 26 19z"/>
<path d="M1613 4430 c0 -30 2 -43 4 -27 2 15 2 39 0 55 -2 15 -4 2 -4 -28z"/>
</g>
</svg>
